<svg xmlns="http://www.w3.org/2000/svg">
  <!-- Fixed brand colors ensure reliable rendering when the emblem is loaded through an external <use>. -->
  <symbol id="site-emblem" viewBox="0 0 64 64">
    <g fill="none" stroke="#b99756" stroke-linecap="round" stroke-linejoin="round">
      <circle cx="32" cy="32" r="25" stroke-width="1.6"/>
      <circle cx="32" cy="32" r="20.5" stroke-width="1" stroke-dasharray="2 3"/>
      <path d="M32 3l3.2 6.2L32 13l-3.2-3.8L32 3ZM61 32l-6.2 3.2L51 32l3.8-3.2L61 32ZM32 61l-3.2-6.2L32 51l3.2 3.8L32 61ZM3 32l6.2-3.2L13 32l-3.8 3.2L3 32Z" fill="#735b31" stroke-width="1.2"/>
      <path d="M32 14 47 24l-5.7 18H22.7L17 24 32 14Z" fill="#601f1b" stroke="#d2b374" stroke-width="1.8"/>
      <path d="m32 14-5 13 5 15 5-15-5-13ZM17 24l10 3 5-13 5 13 10-3M22.7 42 27 27h10l4.3 15M27 27l-4.3 15M37 27l4.3 15" stroke="#d2b374" stroke-width="1.15"/>
      <circle cx="32" cy="32" r="2" fill="#d2b374" stroke="none"/>
    </g>
  </symbol>

  <symbol id="quick-reference" viewBox="0 0 64 64" fill="none" stroke="currentColor" stroke-width="2" stroke-linecap="round" stroke-linejoin="round">
    <circle cx="32" cy="32" r="27" opacity=".35"/><path d="M32 8v5M32 51v5M8 32h5M51 32h5M15 15l3.5 3.5M45.5 45.5 49 49M49 15l-3.5 3.5M18.5 45.5 15 49" opacity=".55"/>
    <path d="M13 20c8-2 14 .3 19 5v24c-5-4.7-11-7-19-5V20Zm38 0c-8-2-14 .3-19 5v24c5-4.7 11-7 19-5V20Z"/>
    <path d="M19 27c3.5-.2 6.2.7 8.5 2.5M19 33c3.5-.2 6.2.7 8.5 2.5M45 27c-3.5-.2-6.2.7-8.5 2.5M45 33c-3.5-.2-6.2.7-8.5 2.5" opacity=".75"/>
  </symbol>

  <symbol id="spells" viewBox="0 0 64 64" fill="none" stroke="currentColor" stroke-width="2" stroke-linecap="round" stroke-linejoin="round">
    <circle cx="32" cy="32" r="27" opacity=".35"/><path d="M32 7v5M32 52v5M7 32h5M52 32h5M13.5 13.5l4 4M46.5 46.5l4 4M50.5 13.5l-4 4M17.5 46.5l-4 4" opacity=".55"/>
    <path d="M34 15c3 8-3 11 3 17 1.5-4 5-6 6-11 6 8 7 14 3.5 21.5A16 16 0 0 1 17 40c-2.7-8 2.4-14 8-19-.7 6 2 8 4 10 3.5-4 6-8 5-16Z"/>
    <path d="M33 31c1 5-5 7-1 13 2.5-2 3.5-4 4-7 3 4 3.4 9-.2 12.5-4.8 2-10.6-.7-11.8-5.7-1.2-5.2 3.2-8.8 9-12.8Z" opacity=".8"/>
  </symbol>

  <symbol id="monsters" viewBox="0 0 64 64" fill="none" stroke="currentColor" stroke-width="2" stroke-linecap="round" stroke-linejoin="round">
    <circle cx="32" cy="32" r="27" opacity=".35"/><path d="m24 22-9-8 3 13m22-5 9-8-3 13"/>
    <path d="M18 24c0-9 28-9 28 0v10c0 6-4 10-9 12v5l-5-4-5 4v-5c-5-2-9-6-9-12V24Z"/>
    <path d="m24 32 6 3-6 3m16-6-6 3 6 3M28 42h8"/>
  </symbol>

  <symbol id="character-sheet" viewBox="0 0 64 64" fill="none" stroke="currentColor" stroke-width="2" stroke-linecap="round" stroke-linejoin="round">
    <circle cx="32" cy="32" r="27" opacity=".35"/><path d="M18 13h24l7 7v31H18V13Z"/><path d="M42 13v8h7M24 24h12M24 30h16M24 36h12M24 42h8" opacity=".8"/>
    <path d="m47 29 5 5-13 13-7 2 2-7 13-13Z"/><path d="m44 32 5 5"/>
  </symbol>

  <symbol id="rules" viewBox="0 0 64 64" fill="none" stroke="currentColor" stroke-width="2.4" stroke-linecap="round" stroke-linejoin="round"><path d="M12 15h17c3 0 5 2 5 5v31c-3-3-7-4-12-4H12V15Zm40 0H35v36c3-3 7-4 12-4h5V15Z"/><path d="M18 23h9M18 29h9M41 23h5M41 29h5"/></symbol>
  <symbol id="combat" viewBox="0 0 64 64" fill="none" stroke="currentColor" stroke-width="2.5" stroke-linecap="round" stroke-linejoin="round"><path d="m15 11 15 15-5 5-15-15 5-5Zm34 0L34 26l5 5 15-15-5-5ZM25 31 12 44m27-13 13 13M8 48l8 8m40-8-8 8"/><path d="m10 46 8 8m36-8-8 8"/></symbol>
  <symbol id="mastery" viewBox="0 0 64 64" fill="none" stroke="currentColor" stroke-width="2.2" stroke-linecap="round" stroke-linejoin="round"><circle cx="32" cy="32" r="23"/><path d="M32 16v32M16 32h32M21 21l22 22M43 21 21 43"/><circle cx="32" cy="32" r="7"/></symbol>
  <symbol id="glossary" viewBox="0 0 64 64" fill="none" stroke="currentColor" stroke-width="2.2" stroke-linecap="round" stroke-linejoin="round"><path d="M15 11h27a7 7 0 0 1 7 7v35H21a6 6 0 0 1-6-6V11Z"/><path d="M15 45c2-2 4-3 7-3h27M23 20h18M23 27h18M23 34h12"/></symbol>
  <symbol id="equipment" viewBox="0 0 64 64" fill="none" stroke="currentColor" stroke-width="2.2" stroke-linecap="round" stroke-linejoin="round"><path d="M19 20h26l5 10-3 23H17l-3-23 5-10Z"/><path d="M24 20v-4a8 8 0 0 1 16 0v4M14 30h36M26 38h12v9H26z"/></symbol>
  <symbol id="classes" viewBox="0 0 64 64" fill="none" stroke="currentColor" stroke-width="2.2" stroke-linecap="round" stroke-linejoin="round"><path d="M32 8 18 16v14c0 11 6 20 14 26 8-6 14-15 14-26V16L32 8Z"/><path d="M25 25h14M32 18v23M24 43h16"/></symbol>
  <symbol id="species" viewBox="0 0 64 64" fill="none" stroke="currentColor" stroke-width="2.2" stroke-linecap="round" stroke-linejoin="round"><circle cx="32" cy="21" r="9"/><path d="M15 53c2-12 8-18 17-18s15 6 17 18M20 16 11 9l3 14m30-7 9-7-3 14"/></symbol>
  <symbol id="backgrounds" viewBox="0 0 64 64" fill="none" stroke="currentColor" stroke-width="2.2" stroke-linecap="round" stroke-linejoin="round"><path d="M13 13h38v38H13z"/><path d="M20 22h24M20 30h24M20 38h16M43 44l8 8"/><circle cx="43" cy="44" r="5"/></symbol>
  <symbol id="feats" viewBox="0 0 64 64" fill="none" stroke="currentColor" stroke-width="2.2" stroke-linecap="round" stroke-linejoin="round"><path d="m32 8 5.5 15.5L53 29l-15.5 5.5L32 50l-5.5-15.5L11 29l15.5-5.5L32 8Z"/><circle cx="32" cy="29" r="7"/></symbol>
  <symbol id="history" viewBox="0 0 64 64" fill="none" stroke="currentColor" stroke-width="2.2" stroke-linecap="round" stroke-linejoin="round"><path d="M17 10h33v38H17zM11 16h6v38h33v-6"/><path d="M24 20h19M24 27h19M24 34h13"/></symbol>
  <symbol id="gods" viewBox="0 0 64 64" fill="none" stroke="currentColor" stroke-width="2.2" stroke-linecap="round" stroke-linejoin="round"><circle cx="32" cy="32" r="10"/><path d="M32 7v10M32 47v10M7 32h10M47 32h10M14 14l7 7M43 43l7 7M50 14l-7 7M21 43l-7 7"/></symbol>
  <symbol id="factions" viewBox="0 0 64 64" fill="none" stroke="currentColor" stroke-width="2.2" stroke-linecap="round" stroke-linejoin="round"><path d="M17 56V9m2 4h30l-7 10 7 10H19"/><path d="m27 19 5 3 5-3v9l-5-3-5 3v-9Z"/></symbol>
  <symbol id="characters" viewBox="0 0 64 64" fill="none" stroke="currentColor" stroke-width="2.2" stroke-linecap="round" stroke-linejoin="round"><circle cx="32" cy="20" r="9"/><path d="M15 54c1-12 7-19 17-19s16 7 17 19M16 21H8m48 0h-8M12 17v8m40-8v8"/></symbol>
  <symbol id="planes" viewBox="0 0 64 64" fill="none" stroke="currentColor" stroke-width="2.2" stroke-linecap="round" stroke-linejoin="round"><circle cx="32" cy="32" r="23"/><ellipse cx="32" cy="32" rx="11" ry="23"/><path d="M9 32h46M14 20h36M14 44h36"/></symbol>
  <symbol id="search" viewBox="0 0 64 64" fill="none" stroke="currentColor" stroke-width="2.5" stroke-linecap="round" stroke-linejoin="round"><circle cx="27" cy="27" r="15"/><path d="m38 38 14 14"/></symbol>
  <symbol id="theme-sun" viewBox="0 0 64 64" fill="none" stroke="currentColor" stroke-width="2.5" stroke-linecap="round" stroke-linejoin="round"><circle cx="32" cy="32" r="10"/><path d="M32 7v8M32 49v8M7 32h8M49 32h8M14 14l6 6M44 44l6 6M50 14l-6 6M20 44l-6 6"/></symbol>
  <symbol id="theme-moon" viewBox="0 0 64 64" fill="none" stroke="currentColor" stroke-width="2.5" stroke-linecap="round" stroke-linejoin="round"><path d="M47 43A22 22 0 0 1 22 9a23 23 0 1 0 25 34Z"/></symbol>
  <symbol id="session" viewBox="0 0 64 64" fill="none" stroke="currentColor" stroke-width="2.4" stroke-linecap="round" stroke-linejoin="round"><path d="M16 25c0-9 7-16 16-16s16 7 16 16v21H16V25Z"/><path d="M23 25c0-5 4-9 9-9s9 4 9 9M23 46v9m18-9v9M13 55h38M25 33h14"/></symbol>
  <symbol id="favorite-empty" viewBox="0 0 64 64" fill="none" stroke="currentColor" stroke-width="2.5" stroke-linecap="round" stroke-linejoin="round"><path d="m32 8 7.4 15 16.6 2.4-12 11.7L46.8 54 32 46.2 17.2 54 20 37.1 8 25.4 24.6 23 32 8Z"/></symbol>
  <symbol id="favorite-filled" viewBox="0 0 64 64" fill="currentColor" stroke="currentColor" stroke-width="2" stroke-linecap="round" stroke-linejoin="round"><path d="m32 8 7.4 15 16.6 2.4-12 11.7L46.8 54 32 46.2 17.2 54 20 37.1 8 25.4 24.6 23 32 8Z"/></symbol>
  <symbol id="menu" viewBox="0 0 64 64" fill="none" stroke="currentColor" stroke-width="2.5" stroke-linecap="round"><path d="M11 18h42M11 32h42M11 46h42"/></symbol>
  <symbol id="close" viewBox="0 0 64 64" fill="none" stroke="currentColor" stroke-width="2.5" stroke-linecap="round"><path d="m14 14 36 36M50 14 14 50"/></symbol>
  <symbol id="chevron-down" viewBox="0 0 64 64" fill="none" stroke="currentColor" stroke-width="2.5" stroke-linecap="round" stroke-linejoin="round"><path d="m14 23 18 18 18-18"/></symbol>
  <symbol id="chevron-right" viewBox="0 0 64 64" fill="none" stroke="currentColor" stroke-width="2.5" stroke-linecap="round" stroke-linejoin="round"><path d="m23 14 18 18-18 18"/></symbol>
</svg>
